<svg width="751" height="303" viewBox="0 0 751 303" fill="none" xmlns="http://www.w3.org/2000/svg">
<g id="Vector 4">
<path d="M747.5 1C757 1 730.5 101.5 693.5 119.5C656.5 137.5 621 158 624 212C627 266 639.5 302 639.5 302H27C22.2452 302 17.7268 299.619 14.5 297.5C12.2976 296.053 9.5 294 8 292.5C6.5 291 4 287.5 4 287.5C1.6169 283.784 1 280.337 1 279V27.5C1 27.5 3.5 17.5 9.5 11.5C15.5 5.5 26 3.5 26 3.5C26 3.5 738 1 747.5 1Z" fill="#265E94"/>
<path d="M8 292.5C9.5 294 12.2976 296.053 14.5 297.5M8 292.5L14.5 297.5M8 292.5C6.5 291 4 287.5 4 287.5C1.6169 283.784 1 280.337 1 279C1 277 1 27.5 1 27.5C1 27.5 3.5 17.5 9.5 11.5C15.5 5.5 26 3.5 26 3.5C26 3.5 738 0.999999 747.5 1C757 1 730.5 101.5 693.5 119.5C656.5 137.5 621 158 624 212C627 266 639.5 302 639.5 302C639.5 302 35 302 27 302C22.2452 302 17.7268 299.619 14.5 297.5" stroke="#4479AC" stroke-width="2"/>
</g>
</svg>
