<svg width="430" height="214" viewBox="0 0 430 214" fill="none" xmlns="http://www.w3.org/2000/svg">
<path d="M0.81569 213.699L-5.40363e-05 212.248L4.72919 209.589L5.54493 211.04L0.81569 213.699ZM7.00384 210.348L6.3944 208.799L11.4431 206.812L12.0526 208.361L7.00384 210.348ZM13.6897 207.802L13.2241 206.204L18.4331 204.687L18.8986 206.285L13.6897 207.802ZM20.6432 205.835L20.2783 204.211L25.5719 203.022L25.9367 204.646L20.6432 205.835ZM27.7398 204.285L27.452 202.646L32.7958 201.708L33.0835 203.347L27.7398 204.285ZM34.9297 203.056L34.6992 201.408L40.0724 200.656L40.3029 202.305L34.9297 203.056ZM42.1704 202.071L41.9884 200.417L47.3813 199.824L47.5634 201.478L42.1704 202.071ZM49.4536 201.291L49.3081 199.633L54.7128 199.159L54.8583 200.817L49.4536 201.291ZM56.7625 200.667L56.6461 199.006L62.0583 198.627L62.1747 200.287L56.7625 200.667ZM64.0966 200.163L63.9982 198.501L69.4142 198.181L69.5126 199.842L64.0966 200.163ZM71.4597 199.727L71.3621 198.066L76.7782 197.747L76.8759 199.409L71.4597 199.727ZM78.8483 199.283L78.733 197.622L84.1455 197.246L84.2608 198.907L78.8483 199.283ZM86.4763 198.616L86.1595 196.982L91.4859 195.95L91.8026 197.584L86.4763 198.616ZM93.9887 197.001L93.4503 195.426L98.5841 193.671L99.1225 195.246L93.9887 197.001ZM101.277 194.283L100.465 192.831L105.2 190.182L106.012 191.635L101.277 194.283ZM108.017 190.172L106.884 188.953L110.859 185.26L111.992 186.479L108.017 190.172ZM113.599 184.525L112.186 183.645L115.057 179.041L116.469 179.921L113.599 184.525ZM117.514 177.663L115.929 177.153L117.591 171.988L119.176 172.498L117.514 177.663ZM119.62 169.986L117.957 169.919L118.176 164.498L119.839 164.565L119.62 169.986ZM119.603 162.045L117.98 162.416L116.772 157.127L118.394 156.756L119.603 162.045ZM117.599 154.461L116.093 155.171L113.777 150.265L115.282 149.555L117.599 154.461ZM114.138 147.556L112.763 148.494L109.706 144.011L111.081 143.074L114.138 147.556ZM109.719 141.315L108.467 142.412L104.891 138.332L106.143 137.235L109.719 141.315ZM104.638 135.675L103.496 136.886L99.5484 133.163L100.69 131.952L104.638 135.675ZM99.0843 130.553L98.0403 131.849L93.8147 128.446L94.8587 127.15L99.0843 130.553ZM93.2626 125.905L92.2602 127.234L87.929 123.967L88.9315 122.638L93.2626 125.905ZM87.7753 121.604L86.5665 122.748L82.8367 118.808L84.0455 117.663L87.7753 121.604ZM83.1755 116.523L81.7544 117.39L78.9298 112.757L80.3509 111.891L83.1755 116.523ZM79.7796 110.642L78.1964 111.156L76.5222 105.995L78.1055 105.482L79.7796 110.642ZM77.8705 104.2L76.2084 104.288L75.9203 98.8701L77.5824 98.7817L77.8705 104.2ZM82.4316 93.2404C82.2108 94.0207 81.8675 94.7053 81.4015 95.2942C80.9281 95.8699 80.3702 96.333 79.7277 96.6835C79.0749 97.031 78.3771 97.2439 77.6343 97.322C76.8812 97.3973 76.1196 97.3259 75.3496 97.1081C74.5796 96.8902 73.8987 96.5535 73.3069 96.0977C72.7048 95.6391 72.222 95.0922 71.8583 94.4571C71.4947 93.8219 71.2621 93.1352 71.1605 92.3968C71.0618 91.6481 71.1229 90.8837 71.3436 90.1034C71.5905 89.2307 71.9477 88.5168 72.4153 87.9616C72.8828 87.4064 73.4327 86.9521 74.065 86.5987L74.9263 88.1398C74.4872 88.3593 74.1048 88.6724 73.779 89.0793C73.4561 89.4758 73.209 89.9769 73.0376 90.5827C72.8866 91.1165 72.841 91.6303 72.9009 92.1241C72.9608 92.6178 73.1188 93.0784 73.3749 93.5056C73.6237 93.9198 73.9595 94.2809 74.3824 94.589C74.8053 94.8972 75.2991 95.1311 75.8637 95.2909C76.4284 95.4507 76.9715 95.5101 77.4932 95.4692C78.0148 95.4282 78.4952 95.298 78.9343 95.0785C79.3661 94.8458 79.7368 94.5349 80.0465 94.1457C80.3562 93.7565 80.5866 93.295 80.7376 92.7611C80.9235 92.1041 80.9828 91.5221 80.9156 91.0152C80.8409 90.4951 80.6741 90.0265 80.4151 89.6095L81.9561 88.7481C82.3198 89.3833 82.5509 90.0752 82.6496 90.8238C82.7482 91.5725 82.6756 92.378 82.4316 93.2404ZM85.3756 86.8908C84.9528 87.5322 84.4287 88.0174 83.803 88.3462C83.1744 88.6602 82.5063 88.8013 81.7989 88.7696C81.0973 88.7289 80.4303 88.5001 79.7978 88.0832C79.1652 87.6663 78.6964 87.1465 78.3913 86.5237C78.0773 85.895 77.9376 85.2343 77.9725 84.5417C78.0132 83.8401 78.2361 83.182 78.6412 82.5673C79.0346 81.9704 79.5191 81.5358 80.0947 81.2635C80.6762 80.9823 81.2927 80.871 81.944 80.9297C82.6012 80.9795 83.2372 81.207 83.8519 81.6121C83.9588 81.6826 84.0643 81.7649 84.1683 81.859C84.2694 81.9384 84.3779 82.0355 84.4939 82.1503L81.0238 87.4153L79.8211 86.6227L82.7892 82.1193L82.9092 82.9843C82.5055 82.7437 82.1259 82.6022 81.7706 82.5597C81.4153 82.5172 81.0841 82.5737 80.7772 82.7292C80.4761 82.8758 80.2081 83.1272 79.9733 83.4836C79.7267 83.8577 79.5925 84.2358 79.5709 84.6176C79.5492 84.9995 79.6355 85.363 79.8296 85.7082C80.0149 86.0476 80.308 86.3493 80.7089 86.6136C81.1098 86.8778 81.5145 87.0295 81.9231 87.0688C82.3317 87.1081 82.7175 87.0365 83.0805 86.8541C83.4346 86.6658 83.7379 86.3801 83.9904 85.997C84.2076 85.6674 84.3494 85.3263 84.4156 84.9738C84.4877 84.6124 84.4769 84.2603 84.3834 83.9175L85.9487 83.6075C86.1084 84.16 86.1351 84.7206 86.0286 85.2894C85.9221 85.8581 85.7044 86.3919 85.3756 86.8908ZM88.1528 82.9387L80.3593 75.3427L81.588 74.0819L89.3816 81.678L88.1528 82.9387ZM82.513 80.0119L81.3668 78.8948L85.1649 74.998L86.311 76.1151L82.513 80.0119ZM93.5045 78.5411C92.9464 78.9528 92.3353 79.1848 91.6713 79.2372C91.0157 79.2832 90.3776 79.164 89.7567 78.8795C89.1381 78.5801 88.6071 78.1299 88.1637 77.5288C87.714 76.9192 87.4406 76.279 87.3435 75.6081C87.2486 74.9224 87.3199 74.2731 87.5574 73.6604C87.7971 73.0328 88.196 72.5132 88.7541 72.1015C89.2264 71.7531 89.7188 71.5489 90.2315 71.489C90.7463 71.4141 91.241 71.4735 91.7153 71.6672C92.1896 71.8609 92.5915 72.181 92.9209 72.6275L94.232 74.4048C94.5613 74.8513 94.7485 75.3297 94.7936 75.8401C94.8472 76.3441 94.7654 76.8354 94.5482 77.3138C94.3247 77.7837 93.9768 78.1928 93.5045 78.5411ZM92.7483 77.0306C93.272 76.6443 93.5629 76.1579 93.6209 75.5715C93.6875 74.9788 93.5181 74.4077 93.1128 73.8582C92.8404 73.489 92.5267 73.2165 92.1717 73.0408C91.8168 72.8652 91.4492 72.7982 91.069 72.84C90.6911 72.8669 90.3261 73.0102 89.9741 73.2699C89.6306 73.5232 89.386 73.8297 89.2401 74.1892C89.0966 74.5337 89.052 74.9047 89.1065 75.302C89.1695 75.6931 89.3372 76.0732 89.6096 76.4424C89.8819 76.8116 90.1956 77.084 90.5506 77.2597C90.9142 77.429 91.2849 77.5003 91.6628 77.4734C92.043 77.4316 92.4048 77.284 92.7483 77.0306ZM95.3028 77.0157L94.0772 75.3543L93.2103 73.6669L91.8635 72.3534L90.7424 70.8336L92.1591 69.7885L96.7195 75.9706L95.3028 77.0157ZM101.76 73.7269L97.2265 71.4073L98.7117 66.6753L100.638 65.8475L98.8949 71.1954L98.5703 70.2375L103.818 72.8423L101.76 73.7269ZM97.2749 75.6543L92.725 65.0674L94.3425 64.3723L98.8924 74.9592L97.2749 75.6543ZM109.135 66.8082L103.31 61.3001L105.379 60.8003L109.951 65.2115L108.987 65.4445L111.042 59.4325L113.08 58.9402L110.38 66.5075L109.135 66.8082ZM109.938 71.2242L108.616 65.7482L110.405 65.316L111.727 70.7921L109.938 71.2242ZM118.297 69.6561C117.655 69.7637 117.058 69.7177 116.505 69.5182C115.963 69.317 115.509 68.9929 115.142 68.5459C114.783 68.0867 114.55 67.5309 114.44 66.8784L113.702 62.4746L115.439 62.1836L116.163 66.5086C116.225 66.8769 116.336 67.1828 116.496 67.4265C116.664 67.6579 116.876 67.8226 117.13 67.9206C117.395 68.0168 117.691 68.0376 118.017 67.983C118.522 67.8983 118.881 67.6866 119.095 67.3479C119.318 66.9969 119.382 66.5425 119.289 65.9848L118.564 61.6599L120.3 61.3689L121.038 65.7728C121.149 66.4357 121.105 67.0435 120.906 67.5963C120.715 68.1367 120.396 68.5904 119.949 68.9574C119.5 69.3139 118.95 69.5468 118.297 69.6561ZM127.91 68.1518L124.216 64.6468L126.977 60.5266L129.058 60.2762L125.877 64.9146L125.836 63.9039L130.135 67.8842L127.91 68.1518ZM123.064 68.7348L121.687 57.2941L123.435 57.0838L124.812 68.5246L123.064 68.7348ZM131.069 64.0687L130.109 56.314L131.942 56.1441L132.424 63.9431L131.069 64.0687ZM132.096 67.8632C131.756 67.8947 131.464 67.8092 131.22 67.6068C130.986 67.3928 130.854 67.1211 130.823 66.7917C130.792 66.4518 130.872 66.1604 131.064 65.9176C131.266 65.6738 131.537 65.5362 131.877 65.5046C132.217 65.4731 132.504 65.5591 132.737 65.7625C132.981 65.9649 133.118 66.2361 133.15 66.5761C133.18 66.9054 133.095 67.1973 132.894 67.4517C132.702 67.6945 132.436 67.8317 132.096 67.8632ZM139.698 67.1324L139.608 65.5345L142.819 65.3533C143.384 65.3214 143.811 65.121 144.1 64.752C144.389 64.383 144.521 63.9695 144.495 63.5115C144.477 63.2025 144.392 62.9188 144.238 62.6603C144.085 62.4018 143.87 62.2002 143.595 62.0554C143.32 61.9107 142.996 61.8488 142.623 61.8698L139.411 62.0511L139.321 60.4532L142.261 60.2873C142.74 60.2602 143.117 60.1161 143.391 59.8548C143.664 59.5936 143.788 59.2233 143.761 58.7439C143.734 58.2645 143.569 57.9105 143.268 57.6817C142.967 57.4529 142.576 57.352 142.097 57.3791L139.157 57.545L139.066 55.9471L142.055 55.7785C142.811 55.7358 143.447 55.8388 143.964 56.0875C144.48 56.3362 144.873 56.6721 145.142 57.095C145.412 57.5179 145.561 57.9797 145.589 58.4804C145.622 59.0663 145.486 59.5923 145.181 60.0583C144.887 60.5238 144.434 60.9127 143.821 61.2252L143.932 60.6418C144.651 60.8898 145.223 61.2636 145.646 61.7633C146.07 62.2631 146.302 62.8645 146.341 63.5676C146.374 64.1428 146.26 64.6782 145.999 65.1738C145.749 65.6688 145.356 66.0811 144.819 66.4106C144.292 66.7289 143.629 66.9106 142.83 66.9557L139.698 67.1324ZM138.435 67.2036L137.804 56.0183L139.642 55.9146L140.273 67.0999L138.435 67.2036ZM151.208 66.7529C150.515 66.7735 149.88 66.6163 149.305 66.2811C148.74 65.9457 148.283 65.4843 147.934 64.8969C147.596 64.2985 147.416 63.6261 147.394 62.8795C147.371 62.1223 147.511 61.4403 147.813 60.8336C148.126 60.2158 148.554 59.7227 149.098 59.3543C149.653 58.9749 150.277 58.7748 150.97 58.7542C151.556 58.7367 152.077 58.8493 152.533 59.0919C152.999 59.3236 153.372 59.654 153.651 60.0834C153.931 60.5127 154.079 61.0046 154.096 61.5592L154.161 63.7668C154.178 64.3214 154.059 64.8213 153.806 65.2665C153.563 65.7114 153.216 66.0686 152.765 66.3382C152.313 66.5972 151.795 66.7354 151.208 66.7529ZM151.446 65.0806C152.097 65.0612 152.613 64.827 152.995 64.378C153.387 63.9287 153.573 63.3627 153.553 62.6802C153.539 62.2216 153.436 61.819 153.244 61.4725C153.053 61.1259 152.789 60.8616 152.452 60.6795C152.126 60.4864 151.745 60.3963 151.307 60.4093C150.881 60.422 150.505 60.5346 150.181 60.7471C149.866 60.9486 149.618 61.2282 149.437 61.5858C149.266 61.9432 149.188 62.3511 149.201 62.8097C149.215 63.2683 149.318 63.6709 149.509 64.0174C149.712 64.3636 149.976 64.6333 150.302 64.8264C150.638 65.0085 151.02 65.0933 151.446 65.0806ZM153.555 66.5229L153.493 64.4592L153.742 62.5785L153.382 60.7318L153.326 58.8441L155.086 58.7918L155.315 66.4705L153.555 66.5229ZM157.153 66.4346L157.082 58.7528L158.842 58.7366L158.913 66.4184L157.153 66.4346ZM158.874 62.1454L158.263 61.8469C158.254 60.876 158.46 60.0899 158.881 59.4885C159.313 58.8763 159.966 58.5662 160.841 58.5581C161.225 58.5545 161.573 58.6207 161.883 58.7565C162.194 58.8924 162.484 59.1138 162.754 59.4207L161.612 60.6156C161.472 60.4675 161.317 60.3623 161.145 60.2998C160.974 60.2374 160.776 60.2072 160.552 60.2093C160.062 60.2138 159.658 60.3723 159.34 60.6846C159.023 60.997 158.868 61.4839 158.874 62.1454ZM166.935 66.5601C166.166 66.5577 165.473 66.3849 164.856 66.0415C164.249 65.6875 163.765 65.2059 163.404 64.5966C163.054 63.9873 162.88 63.3039 162.882 62.5463C162.884 61.7888 163.063 61.1118 163.417 60.5154C163.771 59.9084 164.247 59.4297 164.845 59.0795C165.455 58.7293 166.127 58.5554 166.864 58.5577C167.579 58.5599 168.207 58.7273 168.751 59.0597C169.304 59.3922 169.735 59.847 170.043 60.4241C170.361 61.0013 170.519 61.658 170.517 62.3942C170.516 62.5222 170.505 62.6555 170.483 62.7942C170.472 62.9222 170.451 63.0662 170.418 63.2261L164.112 63.2064L164.117 61.766L169.51 61.7829L168.852 62.357C168.832 61.8874 168.743 61.4924 168.584 61.1718C168.425 60.8512 168.196 60.6051 167.898 60.4334C167.611 60.2618 167.253 60.1753 166.827 60.174C166.378 60.1726 165.989 60.2674 165.657 60.4584C165.326 60.6494 165.069 60.9207 164.887 61.2723C164.704 61.6131 164.612 62.0236 164.611 62.5037C164.609 62.9839 164.704 63.4056 164.895 63.769C165.086 64.1323 165.357 64.4159 165.708 64.6198C166.06 64.8129 166.465 64.9102 166.924 64.9116C167.319 64.9129 167.682 64.8447 168.013 64.707C168.355 64.5694 168.643 64.3675 168.879 64.1015L169.996 65.2413C169.621 65.6776 169.166 66.007 168.632 66.2294C168.098 66.4518 167.532 66.562 166.935 66.5601ZM177.09 66.5311L177.175 62.0987C177.184 61.5866 177.027 61.1621 176.703 60.825C176.389 60.4882 175.976 60.3149 175.464 60.3051C175.123 60.2986 174.817 60.3674 174.548 60.5117C174.278 60.6559 174.066 60.86 173.912 61.1238C173.757 61.3876 173.677 61.6902 173.67 62.0316L172.99 61.6344C173.001 61.0477 173.139 60.5327 173.403 60.0896C173.668 59.6358 174.027 59.2851 174.48 59.0377C174.944 58.7798 175.458 58.6562 176.024 58.6671C176.6 58.6781 177.109 58.8372 177.551 59.1445C177.994 59.4411 178.339 59.8266 178.586 60.3008C178.833 60.7644 178.952 61.2469 178.942 61.7483L178.85 66.5648L177.09 66.5311ZM171.825 66.4303L171.972 58.7496L173.732 58.7833L173.585 66.464L171.825 66.4303ZM183.638 70.0799C182.827 70.0522 182.123 69.8786 181.526 69.5592C180.928 69.2505 180.451 68.8232 180.096 68.2773L181.287 67.165C181.583 67.5595 181.925 67.8594 182.313 68.0649C182.701 68.2703 183.173 68.3825 183.727 68.4015C184.42 68.4252 184.976 68.2627 185.393 67.9141C185.81 67.576 186.03 67.0978 186.051 66.4793L186.115 64.5919L186.477 62.9068L186.232 61.1849L186.303 59.1216L188.062 59.1818L187.81 66.5395C187.785 67.2753 187.593 67.9093 187.233 68.4414C186.873 68.9842 186.383 69.3999 185.765 69.6883C185.147 69.9767 184.437 70.1073 183.638 70.0799ZM183.678 66.5582C182.996 66.5349 182.383 66.3484 181.84 65.9989C181.308 65.6391 180.892 65.1604 180.592 64.563C180.303 63.9659 180.17 63.3048 180.195 62.5797C180.22 61.8546 180.397 61.2094 180.726 60.6442C181.065 60.0793 181.513 59.6409 182.068 59.329C182.634 59.0067 183.258 58.8573 183.941 58.8806C184.549 58.9014 185.078 59.0423 185.528 59.3032C185.978 59.5642 186.323 59.9176 186.564 60.3636C186.806 60.7989 186.917 61.3044 186.897 61.8803L186.832 63.7677C186.813 64.3328 186.662 64.8295 186.381 65.2575C186.11 65.686 185.741 66.015 185.274 66.2446C184.807 66.4741 184.275 66.5787 183.678 66.5582ZM184.087 64.9068C184.513 64.9214 184.89 64.8435 185.216 64.6732C185.542 64.5029 185.796 64.2607 185.977 63.9466C186.17 63.6223 186.274 63.2415 186.289 62.8043C186.304 62.3671 186.226 61.9854 186.056 61.6593C185.896 61.3229 185.66 61.0586 185.346 60.8664C185.032 60.6741 184.662 60.5707 184.236 60.5561C183.809 60.5415 183.428 60.6192 183.091 60.7892C182.765 60.9595 182.505 61.2069 182.313 61.5312C182.121 61.8449 182.017 62.2204 182.002 62.6576C181.987 63.0841 182.065 63.4658 182.235 63.8025C182.405 64.1393 182.647 64.4038 182.961 64.596C183.285 64.7886 183.66 64.8922 184.087 64.9068ZM196.177 67.4583C195.293 67.4088 194.551 67.2069 193.951 66.8526C193.351 66.4984 192.823 65.9986 192.368 65.3533L193.684 64.1768C193.968 64.6415 194.316 65.0137 194.728 65.2932C195.14 65.5621 195.676 65.7151 196.337 65.7521C196.955 65.7868 197.452 65.6864 197.829 65.451C198.216 65.2163 198.422 64.8752 198.447 64.4278C198.468 64.0549 198.389 63.7459 198.21 63.5008C198.032 63.2557 197.787 63.0496 197.476 62.8826C197.176 62.7054 196.837 62.5475 196.46 62.4089C196.095 62.2601 195.724 62.1004 195.349 61.9298C194.985 61.7491 194.65 61.5326 194.343 61.2803C194.048 61.0286 193.814 60.711 193.644 60.3274C193.473 59.9438 193.403 59.4644 193.436 58.8891C193.473 58.2286 193.664 57.6783 194.009 57.2382C194.366 56.788 194.828 56.4559 195.395 56.2419C195.963 56.0279 196.588 55.9401 197.27 55.9783C198.005 56.0195 198.652 56.2 199.211 56.5199C199.781 56.8404 200.234 57.2345 200.571 57.7022L199.255 58.8787C198.956 58.4986 198.635 58.2135 198.293 58.0233C197.962 57.8231 197.573 57.7105 197.126 57.6854C196.572 57.6543 196.129 57.7417 195.797 57.9475C195.475 58.1539 195.303 58.4595 195.28 58.8643C195.261 59.2052 195.342 59.4875 195.521 59.7114C195.702 59.9245 195.942 60.1143 196.243 60.2808C196.555 60.4372 196.893 60.5898 197.259 60.7385C197.636 60.8878 198.006 61.0528 198.37 61.2335C198.744 61.4148 199.079 61.642 199.373 61.915C199.679 62.1779 199.917 62.5118 200.086 62.9167C200.256 63.3216 200.324 63.8224 200.291 64.4189C200.235 65.4203 199.833 66.1939 199.087 66.7398C198.351 67.2863 197.381 67.5258 196.177 67.4583ZM201.416 67.6376L202.264 60.0025L204.014 60.1969L203.165 67.8321L201.416 67.6376ZM203.295 58.6999C202.998 58.6669 202.76 58.5385 202.58 58.3146C202.412 58.0919 202.344 57.8321 202.377 57.5352C202.41 57.2383 202.533 56.9997 202.747 56.8194C202.97 56.6403 203.231 56.5673 203.528 56.6003C203.835 56.6344 204.073 56.7629 204.242 56.9856C204.41 57.2082 204.478 57.4681 204.445 57.765C204.412 58.0619 204.289 58.3005 204.076 58.4808C203.862 58.661 203.602 58.7341 203.295 58.6999ZM210.266 64.0675L210.494 62.5643L213.295 62.99C213.854 63.075 214.308 62.9983 214.657 62.76C215.019 62.5127 215.239 62.1306 215.317 61.6138C215.388 61.1496 215.294 60.7361 215.036 60.3731C214.778 60.0102 214.37 59.7862 213.811 59.7013L210.995 59.2732L211.235 57.6909L214.131 58.131C214.827 58.2368 215.417 58.4722 215.901 58.8372C216.387 59.1916 216.735 59.6331 216.946 60.1616C217.169 60.6812 217.235 61.2469 217.142 61.8587C217.044 62.5021 216.811 63.0388 216.444 63.4686C216.087 63.8999 215.624 64.2074 215.057 64.391C214.489 64.5745 213.858 64.6134 213.161 64.5076L210.266 64.0675ZM208.302 68.5768L209.985 57.5009L211.805 57.7775L210.121 68.8534L208.302 68.5768ZM214.378 69.5003L211.232 64.101L213.019 63.7412L216.672 69.849L214.378 69.5003ZM221.036 70.6545C220.297 70.5454 219.653 70.2724 219.103 69.8353C218.554 69.3876 218.144 68.8365 217.874 68.1819C217.615 67.5288 217.54 66.8329 217.649 66.094C217.758 65.3551 218.03 64.7158 218.465 64.1761C218.912 63.638 219.461 63.2391 220.114 62.9796C220.769 62.7095 221.466 62.6289 222.204 62.738C222.954 62.8486 223.604 63.1224 224.154 63.5595C224.704 63.9966 225.109 64.5417 225.369 65.1947C225.64 65.8388 225.722 66.5303 225.613 67.2691C225.504 68.008 225.225 68.6518 224.778 69.2005C224.34 69.7507 223.795 70.1609 223.14 70.431C222.487 70.6906 221.786 70.7651 221.036 70.6545ZM221.284 68.9762C221.717 69.04 222.111 69.0011 222.466 68.8594C222.833 68.7087 223.132 68.4724 223.363 68.1505C223.605 67.8303 223.758 67.4484 223.823 67.0051C223.889 66.5618 223.851 66.1572 223.711 65.7914C223.571 65.4256 223.352 65.1236 223.052 64.8853C222.755 64.6365 222.39 64.4801 221.957 64.4163C221.535 64.354 221.14 64.3982 220.772 64.5489C220.417 64.6906 220.12 64.9163 219.88 65.2261C219.65 65.5373 219.503 65.9147 219.438 66.358C219.372 66.8013 219.404 67.2104 219.532 67.5852C219.67 67.9615 219.888 68.2741 220.186 68.523C220.496 68.7628 220.862 68.9139 221.284 68.9762ZM226.513 71.2982L227.614 63.6955L229.357 63.9479L228.255 71.5507L226.513 71.2982ZM231.565 72.0303L232.222 67.5004C232.295 66.9935 232.193 66.5799 231.916 66.2594C231.641 65.9284 231.271 65.7293 230.806 65.6619C230.489 65.616 230.195 65.6381 229.923 65.7281C229.662 65.8196 229.44 65.9761 229.257 66.1975C229.076 66.4084 228.96 66.6828 228.911 67.0207L228.285 66.5419C228.369 65.9611 228.569 65.4779 228.883 65.0922C229.198 64.7066 229.589 64.429 230.055 64.2594C230.523 64.0793 231.027 64.0282 231.565 64.1063C232.104 64.1843 232.573 64.3708 232.972 64.6659C233.371 64.9609 233.667 65.338 233.859 65.7971C234.051 66.2562 234.105 66.7814 234.019 67.3727L233.308 72.2828L231.565 72.0303ZM236.618 72.7625L237.274 68.2325C237.348 67.7257 237.246 67.312 236.969 66.9916C236.694 66.6606 236.323 66.4614 235.859 66.3941C235.553 66.3497 235.264 66.3725 234.992 66.4625C234.72 66.5525 234.493 66.7082 234.31 66.9297C234.128 67.1406 234.013 67.415 233.964 67.7529L233.037 67.2304C233.174 66.6573 233.416 66.1802 233.762 65.7992C234.108 65.4181 234.52 65.1435 234.997 64.9755C235.486 64.7984 236 64.7489 236.539 64.827C237.088 64.9065 237.567 65.0946 237.977 65.3912C238.387 65.6877 238.693 66.0663 238.896 66.5269C239.099 66.9876 239.157 67.5135 239.072 68.1049L238.36 73.015L236.618 72.7625ZM243.358 73.8723C242.671 73.7774 242.072 73.517 241.56 73.0908C241.058 72.6662 240.685 72.1353 240.439 71.4982C240.205 70.852 240.139 70.1589 240.241 69.4191C240.344 68.6686 240.596 68.0194 240.994 67.4712C241.405 66.914 241.91 66.4989 242.507 66.226C243.117 65.944 243.765 65.8504 244.452 65.9452C245.034 66.0255 245.529 66.2231 245.938 66.538C246.359 66.8438 246.671 67.2317 246.876 67.7015C247.08 68.1713 247.145 68.681 247.069 69.2306L246.767 71.4185C246.691 71.9681 246.491 72.4413 246.167 72.8382C245.853 73.2365 245.452 73.5312 244.962 73.7221C244.474 73.9025 243.94 73.9525 243.358 73.8723ZM243.871 72.2628C244.516 72.3518 245.064 72.2066 245.515 71.8273C245.976 71.4494 246.254 70.9222 246.347 70.2458C246.41 69.7913 246.375 69.3772 246.244 69.0036C246.112 68.6301 245.896 68.3255 245.594 68.09C245.305 67.8455 244.944 67.6933 244.51 67.6334C244.087 67.5751 243.698 67.6237 243.343 67.7793C243 67.9258 242.709 68.1603 242.47 68.4828C242.243 68.8068 242.097 69.196 242.035 69.6505C241.972 70.105 242.006 70.519 242.138 70.8926C242.28 71.2677 242.496 71.5775 242.785 71.8221C243.086 72.0576 243.448 72.2045 243.871 72.2628ZM245.711 74.0354L245.993 71.9903L246.55 70.1769L246.503 68.2962L246.761 66.4255L248.505 66.6662L247.455 74.2762L245.711 74.0354ZM249.834 71.3249L250.062 69.6761L255.436 70.418L255.209 72.0668L249.834 71.3249ZM257.149 72.3318L257.372 70.6823L262.749 71.4087L262.526 73.0582L257.149 72.3318ZM264.477 73.3147L264.688 71.6637L270.07 72.3516L269.859 74.0027L264.477 73.3147ZM271.795 74.2501L272.006 72.5991L277.387 73.2871L277.176 74.9381L271.795 74.2501ZM279.112 75.1856L279.323 73.5345L284.705 74.2225L284.494 75.8735L279.112 75.1856ZM286.454 76.1143L286.649 74.4613L292.037 75.0965L291.842 76.7495L286.454 76.1143ZM293.788 76.9759L293.977 75.3223L299.368 75.9408L299.178 77.5945L293.788 76.9759ZM301.133 77.8123L301.312 76.1574L306.706 76.7404L306.527 78.3952L301.133 77.8123ZM308.486 78.5992L308.652 76.943L314.05 77.484L313.885 79.1401L308.486 78.5992ZM315.841 79.3303L315.997 77.6732L321.398 78.1822L321.242 79.8393L315.841 79.3303ZM323.219 80.0116L323.352 78.3525L328.76 78.7856L328.627 80.4448L323.219 80.0116ZM330.61 80.5882L330.717 78.9272L336.131 79.2768L336.024 80.9378L330.61 80.5882ZM338.012 81.0493L338.091 79.3867L343.51 79.6452L343.431 81.3078L338.012 81.0493ZM345.477 81.3636L345.488 79.6992L350.914 79.737L350.902 81.4014L345.477 81.3636ZM352.926 81.3838L352.885 79.7199L358.309 79.5879L358.35 81.2519L352.926 81.3838ZM360.37 81.1719L360.279 79.5099L365.697 79.2127L365.788 80.8747L360.37 81.1719ZM367.81 80.7307L367.665 79.0726L373.069 78.5995L373.215 80.2577L367.81 80.7307ZM375.236 80.0449L375.033 78.3929L380.418 77.7308L380.621 79.3828L375.236 80.0449ZM382.654 79.0872L382.378 77.4458L387.729 76.5469L388.005 78.1883L382.654 79.0872ZM390.03 77.7979L389.676 76.1715L394.977 75.0175L395.331 76.6438L390.03 77.7979ZM397.36 76.1376L396.909 74.5355L402.131 73.0644L402.582 74.6665L397.36 76.1376ZM404.619 74.0005L404.036 72.4413L409.119 70.5427L409.701 72.1019L404.619 74.0005ZM411.77 71.157L410.974 69.6954L415.738 67.0995L416.534 68.561L411.77 71.157ZM418.64 66.9248L417.422 65.79L421.121 61.8208L422.339 62.9556L418.64 66.9248ZM423.767 60.685L422.224 60.0596L424.262 55.0316L425.805 55.657L423.767 60.685ZM426.51 53.5301L424.899 53.1093L426.271 47.86L427.881 48.2808L426.51 53.5301ZM428.337 46.19L426.697 45.9028L427.633 40.5587L429.273 40.8459L428.337 46.19ZM429.549 38.7042L427.89 38.5658L428.341 33.1591L430 33.2975L429.549 38.7042ZM429.951 30.8739L428.299 31.0795L427.629 25.6955L429.28 25.49L429.951 30.8739ZM428.47 22.9178L426.993 23.6849L424.493 18.87L425.97 18.1029L428.47 22.9178ZM424.877 16.226L423.481 17.1312L420.53 12.578L421.927 11.6728L424.877 16.226ZM420.645 9.90204L419.349 10.9459L415.946 6.71983L417.243 5.67601L420.645 9.90204ZM415.72 4.01992L414.571 5.2242L410.645 1.47896L411.794 0.274689L415.72 4.01992Z" fill="white"/>
</svg>
